<?xml version="1.0" encoding="utf-8"?><svg xmlns="http://www.w3.org/2000/svg" xmlns:xlink="http://www.w3.org/1999/xlink" width="1536" height="706" preserveAspectRatio="xMidYMid" viewBox="0 0 1536 706" style="z-index:1;margin-right:-2px;display:block;background-repeat-y:initial;background-repeat-x:initial;background-color:rgb(119, 0, 70);animation-play-state:paused" ><g transform="" style="animation-play-state:paused" ><circle cx="0" cy="0" r="1690.482771281624" fill="#ff00ff" fill-opacity="0.4" transform="matrix(0.9950000047683716,0,0,0.9950000047683716,0,0)" style="transform:matrix(0.995, 0, 0, 0.995, 0, 0);animation-play-state:paused" ></circle>
<circle cx="0" cy="0" r="1536.802519346931" fill="#e157ff" fill-opacity="0.4" transform="matrix(0.9957127571105957,0,0,0.9957127571105957,0,0)" style="transform:matrix(0.995713, 0, 0, 0.995713, 0, 0);animation-play-state:paused" ></circle>
<circle cx="0" cy="0" r="1383.122267412238" fill="#bb7bff" fill-opacity="0.4" transform="matrix(0.9978168606758118,0,0,0.9978168606758118,0,0)" style="transform:matrix(0.997817, 0, 0, 0.997817, 0, 0);animation-play-state:paused" ></circle>
<circle cx="0" cy="0" r="1229.4420154775448" fill="#8b96ff" fill-opacity="0.4" transform="matrix(1.0007541179656982,0,0,1.0007541179656982,0,0)" style="transform:matrix(1.00075, 0, 0, 1.00075, 0, 0);animation-play-state:paused" ></circle>
<circle cx="0" cy="0" r="1075.7617635428517" fill="#48acff" fill-opacity="0.4" transform="matrix(1.0033924579620361,0,0,1.0033924579620361,0,0)" style="transform:matrix(1.00339, 0, 0, 1.00339, 0, 0);animation-play-state:paused" ></circle>
<circle cx="0" cy="0" r="922.0815116081585" fill="#00beff" fill-opacity="0.4" transform="matrix(1.0048242807388306,0,0,1.0048242807388306,0,0)" style="transform:matrix(1.00482, 0, 0, 1.00482, 0, 0);animation-play-state:paused" ></circle>
<circle cx="0" cy="0" r="768.4012596734655" fill="#00cdff" fill-opacity="0.4" transform="matrix(1.0048242807388306,0,0,1.0048242807388306,0,0)" style="transform:matrix(1.00482, 0, 0, 1.00482, 0, 0);animation-play-state:paused" ></circle>
<circle cx="0" cy="0" r="614.7210077387724" fill="#00daff" fill-opacity="0.4" transform="matrix(1.0033924579620361,0,0,1.0033924579620361,0,0)" style="transform:matrix(1.00339, 0, 0, 1.00339, 0, 0);animation-play-state:paused" ></circle>
<circle cx="0" cy="0" r="461.04075580407925" fill="#00e5ff" fill-opacity="0.4" transform="matrix(1.0007541179656982,0,0,1.0007541179656982,0,0)" style="transform:matrix(1.00075, 0, 0, 1.00075, 0, 0);animation-play-state:paused" ></circle>
<circle cx="0" cy="0" r="307.3605038693862" fill="#00efff" fill-opacity="0.4" transform="matrix(0.9978168606758118,0,0,0.9978168606758118,0,0)" style="transform:matrix(0.997817, 0, 0, 0.997817, 0, 0);animation-play-state:paused" ></circle>
<circle cx="0" cy="0" r="153.6802519346931" fill="#00f8ff" fill-opacity="0.4" transform="matrix(0.9957127571105957,0,0,0.9957127571105957,0,0)" style="transform:matrix(0.995713, 0, 0, 0.995713, 0, 0);animation-play-state:paused" ></circle>
<circle cx="0" cy="0" r="0" fill="#00ffff" fill-opacity="0.4" transform="matrix(0.9950000047683716,0,0,0.9950000047683716,0,0)" style="transform:matrix(0.995, 0, 0, 0.995, 0, 0);animation-play-state:paused" ></circle></g></svg>